<svg xmlns="http://www.w3.org/2000/svg" version="1.1" xmlns:xlink="http://www.w3.org/1999/xlink" xmlns:svgjs="http://svgjs.dev/svgjs" width="1500" height="284" viewBox="0 0 1500 284"><g transform="matrix(1,0,0,1,-0.9090909090909918,0.8559353118621686)"><svg viewBox="0 0 396 75" data-background-color="#ffffff" preserveAspectRatio="xMidYMid meet" height="284" width="1500" xmlns="http://www.w3.org/2000/svg" xmlns:xlink="http://www.w3.org/1999/xlink"><g id="tight-bounds" transform="matrix(1,0,0,1,0.2400000000000091,-0.22603925489318044)"><svg viewBox="0 0 395.52 75.45207850978635" height="75.45207850978635" width="395.52"><g><svg viewBox="0 0 509.26377136245526 97.150612001997" height="75.45207850978635" width="395.52"><g transform="matrix(1,0,0,1,0,13.426748836744885)"><svg viewBox="0 0 395.52 70.29711432850723" height="70.29711432850723" width="395.52"><g id="textblocktransform"><svg viewBox="0 0 395.52 70.29711432850723" height="70.29711432850723" width="395.52" id="textblock"><g><svg viewBox="0 0 395.52 70.29711432850723" height="70.29711432850723" width="395.52"><g transform="matrix(1,0,0,1,0,0)"><svg width="395.52" viewBox="2.8 -35.25 200.28 35.6" height="70.29711432850723" data-palette-color="#545eff"><path d="M16.65-24.95Q20.75-24.95 22.9-22.8 25.05-20.65 25.05-16.55L25.05-16.55Q25.05-15.65 25-15.2L25-15.2 23.8 0 19.75 0 20.95-14.95Q21-15.3 21-16L21-16Q21-21.55 15.65-21.55L15.65-21.55Q12.25-21.55 10.25-19.53 8.25-17.5 7.95-13.95L7.95-13.95 6.85 0 2.8 0 4.75-24.35 8.7-24.35 8.4-20.6Q9.65-22.65 11.8-23.8 13.95-24.95 16.65-24.95L16.65-24.95ZM52.6-11.55L34.75-11.55 34.75-11.35Q34.75-7.35 36.72-5.15 38.7-2.95 42.45-2.95L42.45-2.95Q46.9-2.95 50.4-5.8L50.4-5.8 51.55-2.8Q50.05-1.35 47.47-0.5 44.9 0.35 42.25 0.35L42.25 0.35Q36.95 0.35 33.82-2.85 30.7-6.05 30.7-11.45L30.7-11.45Q30.7-15.4 32.2-18.48 33.7-21.55 36.4-23.25 39.1-24.95 42.7-24.95L42.7-24.95Q47.35-24.95 50.05-22.18 52.75-19.4 52.75-14L52.75-14Q52.75-12.85 52.6-11.55L52.6-11.55ZM42.85-21.8Q39.5-21.8 37.5-19.83 35.5-17.85 34.95-14.15L34.95-14.15 49.15-14.15Q49.3-17.95 47.6-19.88 45.9-21.8 42.85-21.8L42.85-21.8ZM64.45-21.15L63.5-8.8Q63.45-8.45 63.45-7.85L63.45-7.85Q63.45-2.9 68.34-2.9L68.34-2.9Q69.55-2.9 70.55-3.1L70.55-3.1 70.09 0.1Q69.05 0.35 67.75 0.35L67.75 0.35Q63.7 0.35 61.55-1.7 59.4-3.75 59.4-7.5L59.4-7.5Q59.4-8.2 59.45-8.6L59.45-8.6 60.45-21.15 55.7-21.15 55.9-24.35 60.65-24.35 61.25-31.75 65.3-31.75 64.7-24.35 71.65-24.35 71.4-21.15 64.45-21.15ZM101.09-4.75L109.54-24.35 113.74-24.35 102.74 0 98.84 0 93.39-18.85 85.09 0 81.24 0 74.09-24.35 78.19-24.35 83.59-4.8 92.14-24.35 95.64-24.35 101.09-4.75ZM127.29 0.35Q123.89 0.35 121.32-1.1 118.74-2.55 117.37-5.23 115.99-7.9 115.99-11.45L115.99-11.45Q115.99-15.5 117.47-18.55 118.94-21.6 121.62-23.28 124.29-24.95 127.84-24.95L127.84-24.95Q131.29-24.95 133.84-23.5 136.39-22.05 137.79-19.35 139.19-16.65 139.19-13.1L139.19-13.1Q139.19-9.05 137.72-6 136.24-2.95 133.54-1.3 130.84 0.35 127.29 0.35L127.29 0.35ZM127.34-3Q130.99-3 133.02-5.75 135.04-8.5 135.04-13.25L135.04-13.25Q135.04-17.25 133.17-19.43 131.29-21.6 127.84-21.6L127.84-21.6Q124.19-21.6 122.14-18.8 120.09-16 120.09-11.3L120.09-11.3Q120.09-7.25 121.94-5.13 123.79-3 127.34-3L127.34-3ZM158.34-24.85L159.69-24.95 159.69-21.45 156.94-21.2Q153.29-20.85 151.49-19.05 149.69-17.25 149.44-13.9L149.44-13.9 148.29 0 144.24 0 146.19-24.3 150.09-24.3 149.79-20.4Q151.09-22.45 153.16-23.53 155.24-24.6 158.34-24.85L158.34-24.85ZM170.88-21.15L169.94-8.8Q169.88-8.45 169.88-7.85L169.88-7.85Q169.88-2.9 174.78-2.9L174.78-2.9Q175.98-2.9 176.98-3.1L176.98-3.1 176.53 0.1Q175.48 0.35 174.19 0.35L174.19 0.35Q170.13 0.35 167.98-1.7 165.84-3.75 165.84-7.5L165.84-7.5Q165.84-8.2 165.88-8.6L165.88-8.6 166.88-21.15 162.13-21.15 162.34-24.35 167.09-24.35 167.69-31.75 171.73-31.75 171.13-24.35 178.09-24.35 177.84-21.15 170.88-21.15ZM194.68-24.95Q198.78-24.95 200.93-22.8 203.08-20.65 203.08-16.55L203.08-16.55Q203.08-15.65 203.03-15.2L203.03-15.2 201.83 0 197.78 0 198.98-14.95Q199.03-15.3 199.03-16L199.03-16Q199.03-21.55 193.68-21.55L193.68-21.55Q190.28-21.55 188.28-19.53 186.28-17.5 185.98-13.95L185.98-13.95 184.88 0 180.83 0 183.63-35.25 187.68-35.25 186.48-20.7Q187.78-22.75 189.91-23.85 192.03-24.95 194.68-24.95L194.68-24.95Z" opacity="1" transform="matrix(1,0,0,1,0,0)" fill="#545eff" class="wordmark-text-0" data-fill-palette-color="primary" id="text-0"></path></svg></g></svg></g></svg></g></svg></g><g transform="matrix(1,0,0,1,412.11546156221664,0)"><svg viewBox="0 0 97.14830980023864 97.150612001997" height="97.150612001997" width="97.14830980023864"><g><svg xmlns="http://www.w3.org/2000/svg" xmlns:xlink="http://www.w3.org/1999/xlink" version="1.1" x="0" y="0" viewBox="7.802 7.801 84.39600000000002 84.398" enable-background="new 0 0 100 100" xml:space="preserve" height="97.150612001997" width="97.14830980023864" class="icon-icon-0" data-fill-palette-color="accent" id="icon-0"><g fill="#fd6c23" data-fill-palette-color="accent"><path d="M49.996 7.801C26.73 7.801 7.802 26.729 7.802 50c0 23.265 18.928 42.199 42.194 42.199 23.271 0 42.202-18.934 42.202-42.199C92.198 26.729 73.267 7.801 49.996 7.801zM49.996 88.325c-21.129 0-38.323-17.191-38.323-38.325 0-21.137 17.194-38.328 38.323-38.328 21.138 0 38.33 17.191 38.33 38.328C88.326 71.134 71.134 88.325 49.996 88.325z" fill="#fd6c23" data-fill-palette-color="accent"></path><polygon points="42.701,49.677 25.864,70.709 74.136,50.003 25.864,29.291  " fill="#fd6c23" data-fill-palette-color="accent"></polygon></g></svg></g></svg></g></svg></g><defs></defs></svg><rect width="395.52" height="75.45207850978635" fill="none" stroke="none" visibility="hidden"></rect></g></svg></g></svg>